# xmcd
#
# Track frame offsets: 
#        150
#        15732
#        31165
#        47395
#        68380
#        85555
#        100857
#        119477
#        133182
#        147405
#        165695
#
# Disc length: 2421 seconds
#
# Revision: 0
# Processed by: cddbd v1.5.1PL0 Copyright (c) Steve Scherf et al.
# Submitted via: ExactAudioCopy v0.95b2
#
DISCID=8609730b
DTITLE=Johnny Crash - Neighbourhood Threat
DYEAR=1990
DGENRE=Hard Rock
TTITLE0=Hey Kid
TTITLE1=No Bones about It
TTITLE2=All the Way in Love
TTITLE3=Thrill of the Kill
TTITLE4=Axe to the Wax
TTITLE5=Sink or Swim
TTITLE6=Crack of Dawn
TTITLE7=Freedom Road
TTITLE8=Halfway to Heaven
TTITLE9=Trigger Happy
TTITLE10=Baby's Like a Piano
EXTD=
EXTT0=
EXTT1=
EXTT2=
EXTT3=
EXTT4=
EXTT5=
EXTT6=
EXTT7=
EXTT8=
EXTT9=
EXTT10=
PLAYORDER=
